inDegrees=yes
name=ik_lifting_orientations
DataType=double
version=3
OpenSimVersion=4.5-2024-01-10-34fd6af
endheader
time	pelvis_tilt	pelvis_list	pelvis_rotation	pelvis_tx	pelvis_ty	pelvis_tz	hip_flexion_r	hip_adduction_r	hip_rotation_r	knee_angle_r	knee_angle_r_beta	ankle_angle_r	subtalar_angle_r	mtp_angle_r	hip_flexion_l	hip_adduction_l	hip_rotation_l	knee_angle_l	knee_angle_l_beta	ankle_angle_l	subtalar_angle_l	mtp_angle_l	lumbar_extension	lumbar_bending	lumbar_rotation	arm_flex_r	arm_add_r	arm_rot_r	elbow_flex_r	pro_sup_r	wrist_flex_r	wrist_dev_r	arm_flex_l	arm_add_l	arm_rot_l	elbow_flex_l	pro_sup_l	wrist_flex_l	wrist_dev_l
3.95	0.1240517853339475	3.23480902297057	-4.660078622670911	0	0.9399999999999999	0	44.99999146259739	-9.999999988573334	0	60.0001505681088	1.047200179105845	-4.999999851047217	0	0	44.99999146259739	-9.999999988573334	0	60.0001505681088	1.047200179105845	-4.999999851047217	0	0	-0.01610017128767578	-0.005452258599402949	-0.01316847504630863	-0.147334843012731	-3.294793194853267	-0.07953108536682442	0.6189289803614365	45.00000025534002	0	0	0	-14.9918399338766	0	75.00019750533306	45.00000025534002	0	0
3.96	0.1213355542632941	3.236531613634274	-4.649511327471066	0	0.9399999999999999	0	44.99999180136417	-9.999999988573334	0	60.00015026035618	1.047200173734548	-4.999999851047217	0	0	44.99999180136417	-9.999999988573334	0	60.00015026035618	1.047200173734548	-4.999999851047217	0	0	-0.007025835085003756	-0.001773639230798961	-0.02121255531562776	-0.29075410468853	-3.330979137976587	-0.1028794916787201	0.9014323523531352	45.00000025534007	0	0	0	-14.99200705756201	0	75.00019665769528	45.00000025534007	0	0
3.97	0.1044775932992093	3.238192556771623	-4.661141562023147	0	0.9399999999999999	0	44.99999197422707	-9.999999988573334	0	60.00015010199286	1.047200170970587	-4.999999851047217	0	0	44.99999197422707	-9.999999988573334	0	60.00015010199286	1.047200170970587	-4.999999851047217	0	0	0.01312933417010605	-0.002033127002654575	-0.004372710615883567	-0.2939819123600341	-3.335310321078251	-0.1047702823015341	0.9022693729335943	45.0000002553401	0	0	0	-14.99209383747314	0	75.0001962251704	45.0000002553401	0	0
3.98	0.1162844852988609	3.234961248095111	-4.670602695187028	0	0.9399999999999999	0	44.99999207897756	-9.999999988573334	0	60.00015000500964	1.04720016927791	-4.999999851047217	0	0	44.99999207897756	-9.999999988573334	0	60.00015000500964	1.04720016927791	-4.999999851047217	0	0	-0.002069335721461961	0.003391757381600814	0.00538959922476771	-0.09192246297788627	-3.293877028668044	-0.08813927120603579	0.4891625844369611	45.00000025534011	0	0	0	-14.99214763729338	0	75.00019596307108	45.00000025534011	0	0
3.99	0.1130871042677172	3.238270881382672	-4.667796717520183	0	0.9399999999999999	0	44.99999242069663	-9.999999988573334	0	60.00014968563918	1.047200163703844	-4.999999851047217	0	0	44.99999242069663	-9.999999988573334	0	60.00014968563918	1.047200163703844	-4.999999851047217	0	0	8.851092930875934e-05	-0.0003073422896066563	0.0005852715343163551	-0.08709976650304041	-3.291941431741069	-0.08399109392290717	0.4875557721195383	45.00000025534015	0	0	0	-14.99232762299063	0	75.0001951080453	45.00000025534015	0	0
4	0.1075906524462873	3.231009618612166	-4.668029429196647	0	0.9399999999999999	0	44.99999275457692	-9.999999988573334	0	60.00014937095482	1.047200158211566	-4.999999851047217	0	0	44.99999275457692	-9.999999988573334	0	60.00014937095482	1.047200158211566	-4.999999851047217	0	0	0.01088923297708741	0.00204579811094958	0.002621633981941585	-0.0955352288974025	-3.285764718089252	-0.08008675093483589	0.4924263901594518	45.00000025534019	0	0	0	-14.99250692386885	0	75.00019427263307	45.00000025534019	0	0
4.01	0.1130825512817843	3.238179649900613	-4.666932540999707	0	0.9399999999999999	0	44.99999291695448	-9.999999988573334	0	60.00014921782581	1.047200155538961	-4.999999851047217	0	0	44.99999291695448	-9.999999988573334	0	60.00014921782581	1.047200155538961	-4.999999851047217	0	0	-0.0008910553661123067	5.939568965659454e-05	-0.0007895546259577885	-0.08580780813915666	-3.291998671825806	-0.08356637574004264	0.4876574405636884	45.0000002553402	0	0	0	-14.99259426360015	0	75.00019386634311	45.0000002553402	0	0
4.02	0.1097882226889864	3.237024904735978	-4.667274605237978	0	0.9399999999999999	0	44.99999322970584	-9.999999988573334	0	60.00014891898701	1.04720015032324	-4.999999851047217	0	0	44.99999322970584	-9.999999988573334	0	60.00014891898701	1.04720015032324	-4.999999851047217	0	0	0.0059881497912732	0.000235403640598883	0.0007750290353167226	-0.09382081960161158	-3.29064861526391	-0.08515723206517375	0.4951789610033657	45.00000025534024	0	0	0	-14.99276757252611	0	75.00019308379802	45.00000025534024	0	0
4.03	0.1115001202688024	3.237114609023703	-4.667029210100083	0	0.9399999999999999	0	44.99999352829481	-9.999999988573334	0	60.00014863108061	1.047200145298325	-4.999999851047217	0	0	44.99999352829481	-9.999999988573334	0	60.00014863108061	1.047200145298325	-4.999999851047217	0	0	0.00269961074414901	-0.0003026444008377508	-2.868713497994325e-05	-0.09213857100151089	-3.29041308358298	-0.08476604234784846	0.4953167165973535	45.00000025534028	0	0	0	-14.99293651796886	0	75.0001923366889	45.00000025534028	0	0
4.04	0.1164367999498928	3.237557919235794	-4.666792833092503	0	0.9399999999999999	0	44.99999381542381	-9.999999988573334	0	60.00014835179382	1.047200140423851	-4.999999851047217	0	0	44.99999381542381	-9.999999988573334	0	60.00014835179382	1.047200140423851	-4.999999851047217	0	0	-0.007903712779564323	0.0001749687926073151	-0.003329946237193854	-0.08248280535718837	-3.292438512017183	-0.08147929336843716	0.4901103933985041	45.00000025534031	0	0	0	-14.99310227601158	0	75.00019161825412	45.00000025534031	0	0
4.05	0.1088584328179638	3.252730627681549	-4.68426534847988	0	0.9399999999999999	0	44.9999942023938	-9.999999988573334	0	60.00014797331826	1.047200133818206	-4.999999851047217	0	0	44.9999942023938	-9.999999988573334	0	60.00014797331826	1.047200133818206	-4.999999851047217	0	0	0.008999779667542486	-0.00739155037444426	0.01148684682221687	-0.3006859435256681	-3.352684585342924	-0.09045227340664222	0.919260300997195	45.00000025534035	0	0	0	-14.99332851461451	0	75.00019065000379	45.00000025534035	0	0
4.06	0.1109257905687	3.228014593748693	-4.660900841252944	0	0.9399999999999999	0	44.99999437433018	-9.999999988573334	0	60.00014780382654	1.047200130860018	-4.999999851047217	0	0	44.99999437433018	-9.999999988573334	0	60.00014780382654	1.047200130860018	-4.999999851047217	0	0	0.0009836543423861856	0.002041230053726548	-0.002192201691565414	-0.09048982443872615	-3.285480635808354	-0.08834752471313045	0.4920153647046328	45.00000025534036	0	0	0	-14.99343049887596	0	75.00019021979634	45.00000025534036	0	0
4.07	0.1090113305611728	3.235190488640075	-4.673550523446522	0	0.9399999999999999	0	44.99999448883398	-9.999999988573334	0	60.00014769026565	1.047200128878006	-4.999999851047217	0	0	44.99999448883398	-9.999999988573334	0	60.00014769026565	1.047200128878006	-4.999999851047217	0	0	-0.01553029356644903	-0.004504952756439168	-0.0006133984093642029	-0.266219835862894	-3.334449723739791	-0.08878822389833142	0.9128307661802274	45.00000025534037	0	0	0	-14.99349959002374	0	75.0001899332925	45.00000025534037	0	0
4.08	0.1137890404862533	3.23583202558773	-4.669031005978773	0	0.9399999999999999	0	44.99999466692795	-9.999999988573334	0	60.000147513778	1.047200125797716	-4.999999851047217	0	0	44.99999466692795	-9.999999988573334	0	60.000147513778	1.047200125797716	-4.999999851047217	0	0	0.002939483409332604	0.003176505231313747	0.0005549534121924406	-0.1383679334487755	-3.301924366799517	-0.0887184803126437	0.5813968725348226	45.00000025534039	0	0	0	-14.99360671047388	0	75.00018948767747	45.00000025534039	0	0
4.09	0.1046467759383615	3.233004845579464	-4.667200589788604	0	0.9399999999999999	0	44.99999486695628	-9.999999988573334	0	60.00014731416245	1.047200122313767	-4.999999851047217	0	0	44.99999486695628	-9.999999988573334	0	60.00014731416245	1.047200122313767	-4.999999851047217	0	0	0.00705652354178055	0.00356300711008003	-0.002491853070969224	-0.2931606697802551	-3.335185741715509	-0.1049768520949453	0.9115238945363867	45.0000002553404	0	0	0	-14.99372907351449	0	75.0001889871796	45.0000002553404	0	0
4.1	0.1148833140032676	3.237650643277779	-4.66719092283282	0	0.9399999999999999	0	44.99999497568967	-9.999999988573334	0	60.00014720473284	1.04720012040386	-4.999999851047217	0	0	44.99999497568967	-9.999999988573334	0	60.00014720473284	1.04720012040386	-4.999999851047217	0	0	-0.002725506968802884	-0.0008665671560146865	-0.0007766252522711678	-0.08605865240613447	-3.29043760795172	-0.08299661566923834	0.4879586847006158	45.00000025534041	0	0	0	-14.99379672787804	0	75.00018871511362	45.00000025534041	0	0
4.11	0.1126158740980077	3.236956168298425	-4.667205451681649	0	0.9399999999999999	0	44.99999520170621	-9.999999988573334	0	60.00014697310476	1.047200116361188	-4.999999851047217	0	0	44.99999520170621	-9.999999988573334	0	60.00014697310476	1.047200116361188	-4.999999851047217	0	0	0.0008591333535629124	-0.0006127777209398483	-0.0007819345721169641	-0.09149244478924576	-3.289934084803789	-0.08361114932282035	0.4955388926509319	45.00000025534043	0	0	0	-14.99394366001452	0	75.00018814958965	45.00000025534043	0	0
4.12	0.1127619185380425	3.236854487025444	-4.666948787860009	0	0.9399999999999999	0	44.99999542398005	-9.999999988573334	0	60.00014674342421	1.047200112352506	-4.999999851047217	0	0	44.99999542398005	-9.999999988573334	0	60.00014674342421	1.047200112352506	-4.999999851047217	0	0	0.0001349640694680996	0.0009617734766309349	-0.0009810480758951001	-0.08684689828124684	-3.291207767532612	-0.08315485015662648	0.4877545907133711	45.00000025534045	0	0	0	-14.9940909361343	0	75.00018759343031	45.00000025534045	0	0
4.13	0.112819756293938	3.244318402457577	-4.670738558504715	0	0.9399999999999999	0	44.99999562469351	-9.999999988573334	0	60.00014653385966	1.047200108694914	-4.999999851047217	0	0	44.99999562469351	-9.999999988573334	0	60.00014653385966	1.047200108694914	-4.999999851047217	0	0	-0.0002352091554016794	-0.001459708079729649	-0.002038458500968119	-0.08215650981246243	-3.298670751050893	-0.08366848397473106	0.4818446502456449	45.00000025534046	0	0	0	-14.99422711944936	0	75.00018709121788	45.00000025534046	0	0
4.14	0.1027776904964449	3.23472915185085	-4.671016292679548	0	0.9399999999999999	0	44.99999575166479	-9.999999988573334	0	60.00014640139525	1.047200106382974	-4.999999851047217	0	0	44.99999575166479	-9.999999988573334	0	60.00014640139525	1.047200106382974	-4.999999851047217	0	0	-0.01127173270393498	-0.001031857890335482	-0.003101463969687458	-0.05709052350470719	-3.286320356443582	-0.07329160243191557	0.4924997374247036	45.00000025534047	0	0	0	-14.99431314048496	0	75.00018677351842	45.00000025534047	0	0
4.15	0.1127583731773234	3.237435327414025	-4.667876311924547	0	0.9399999999999999	0	44.99999593859569	-9.999999988573334	0	60.00014620337656	1.047200102926896	-4.999999851047217	0	0	44.99999593859569	-9.999999988573334	0	60.00014620337656	1.047200102926896	-4.999999851047217	0	0	0.0002640486630560449	-7.030437031139214e-05	3.790726669477325e-06	-0.08656709913738128	-3.29172297113405	-0.08247816779680661	0.4874997611516316	45.00000025534047	0	0	0	-14.99444425273101	0	75.00018630579184	45.00000025534047	0	0
4.16	0.120236695124069	3.237191091496036	-4.667823552032506	0	0.9399999999999999	0	44.99999612686549	-9.999999988573334	0	60.00014600222153	1.047200099416079	-4.999999851047217	0	0	44.99999612686549	-9.999999988573334	0	60.00014600222153	1.047200099416079	-4.999999851047217	0	0	-0.01453095888199726	0.0002696925660153031	-0.001605782330867445	-0.0797754642023675	-3.29187459310504	-0.08275955209491401	0.4896704617728304	45.00000025534049	0	0	0	-14.99457891587769	0	75.00018583471487	45.00000025534049	0	0
4.17	0.1128526957803469	3.236540892477926	-4.666921780001414	0	0.9399999999999999	0	44.99999641471821	-9.999999988573334	0	60.00014569300761	1.047200094019278	-4.999999851047217	0	0	44.99999641471821	-9.999999988573334	0	60.00014569300761	1.047200094019278	-4.999999851047217	0	0	-7.585152761063151e-05	0.001755076545048237	-0.001210150303011146	-0.08670269318501109	-3.291457804223584	-0.08252658587965694	0.4876563797767738	45.0000002553405	0	0	0	-14.99478740333229	0	75.00018511446763	45.0000002553405	0	0
